<?xml version="1.0" standalone="no"?>
<!DOCTYPE svg PUBLIC "-//W3C//DTD SVG 20010904//EN"
 "http://www.w3.org/TR/2001/REC-SVG-20010904/DTD/svg10.dtd">
<svg version="1.0" xmlns="http://www.w3.org/2000/svg"
 width="128.000000pt" height="128.000000pt" viewBox="0 0 128.000000 128.000000"
 preserveAspectRatio="xMidYMid meet">
<metadata>
Created by potrace 1.16, written by Peter Selinger 2001-2019
</metadata>
<g transform="translate(0.000000,128.000000) scale(0.100000,-0.100000)"
fill="#000000" stroke="none">
<path d="M484 1266 c-127 -31 -280 -130 -352 -228 -89 -122 -122 -215 -129
-361 -7 -138 7 -208 64 -326 63 -131 153 -221 284 -284 111 -54 169 -67 289
-67 120 0 178 13 289 67 75 36 108 59 166 118 59 58 82 91 118 166 54 111 67
169 67 289 0 120 -13 178 -67 289 -63 131 -153 221 -284 284 -52 25 -118 50
-147 56 -69 14 -234 13 -298 -3z m309 -56 c26 -7 47 -16 47 -21 0 -5 -25 -9
-55 -9 l-55 0 -25 -50 c-33 -66 -32 -78 13 -97 29 -12 47 -14 84 -6 37 7 63 6
115 -8 83 -22 122 -23 147 -4 17 13 21 11 47 -23 l28 -37 -48 -16 c-38 -13
-59 -15 -104 -7 -31 6 -57 13 -57 18 0 4 -11 19 -25 34 -22 23 -31 26 -94 26
-68 0 -73 -2 -112 -37 l-41 -37 6 -74 c10 -109 13 -114 102 -151 65 -27 85
-31 124 -26 67 9 90 -7 90 -63 0 -30 12 -66 40 -122 28 -57 40 -92 40 -123 0
-29 7 -53 20 -70 11 -14 20 -30 20 -35 0 -22 -128 -125 -195 -158 -92 -45
-172 -64 -265 -64 -271 0 -505 187 -575 460 -19 75 -17 242 3 262 9 9 12 9 12
-4 0 -8 25 -32 56 -52 41 -28 53 -41 45 -49 -19 -19 -13 -104 10 -150 26 -50
30 -53 86 -62 l43 -6 0 -109 c0 -93 4 -117 24 -163 20 -47 28 -54 65 -65 23
-7 46 -10 51 -7 6 3 10 30 10 59 0 50 2 55 38 82 46 35 52 43 52 74 0 15 16
40 41 66 33 34 43 54 54 104 7 35 11 69 8 77 -3 8 -21 13 -48 13 -40 0 -44 3
-76 53 l-34 52 -73 3 -72 3 -20 39 c-21 41 -45 51 -68 28 -9 -9 -12 -7 -12 8
0 12 -9 29 -20 39 -40 36 -27 48 65 60 76 10 157 64 197 130 24 40 40 56 61
61 21 4 33 16 43 41 23 53 15 76 -26 84 -19 4 -53 10 -75 14 l-40 8 45 13 c53
16 212 12 283 -6z m-348 -50 c22 -11 49 -20 61 -20 28 0 54 -10 54 -20 0 -5
-16 -14 -35 -20 -26 -9 -42 -24 -65 -65 -42 -74 -102 -110 -209 -125 l-81 -12
0 -51 c0 -38 5 -56 22 -74 30 -32 16 -39 -26 -11 -26 16 -40 36 -52 70 -15 47
-15 48 13 100 36 68 143 177 213 216 30 18 57 32 60 32 3 0 23 -9 45 -20z
m513 -25 c71 -47 88 -64 73 -74 -8 -5 -19 -8 -25 -6 -86 25 -166 36 -200 27
-52 -15 -68 -7 -54 24 9 20 18 24 57 24 25 1 57 7 71 15 33 19 35 19 78 -10z
m-79 -209 c20 -31 27 -34 99 -45 70 -11 82 -10 134 8 l57 20 21 -57 c12 -31
26 -82 32 -112 21 -112 -9 -291 -62 -378 -17 -28 -23 -32 -35 -22 -9 8 -15 30
-15 56 0 32 -11 67 -40 124 -30 60 -40 91 -40 128 0 47 -2 51 -42 77 -38 25
-45 27 -86 17 -40 -9 -53 -7 -106 16 -34 14 -62 26 -64 27 -1 1 -7 29 -12 61
-9 56 -8 60 17 86 22 23 35 28 74 28 43 0 49 -3 68 -34z m-571 -261 c11 -23
16 -25 86 -25 l75 0 36 -55 c31 -49 38 -55 69 -55 34 0 34 0 26 -36 -5 -22
-25 -54 -49 -78 -30 -31 -41 -50 -41 -73 0 -22 -7 -35 -26 -48 -48 -31 -64
-54 -64 -90 0 -49 -13 -44 -33 13 -12 33 -17 78 -17 153 0 73 -4 110 -12 117
-7 5 -34 13 -59 17 -40 6 -48 12 -63 41 -23 50 -20 74 16 111 18 18 35 33 38
33 4 0 12 -11 18 -25z"/>
</g>
</svg>
